<svg xmlns="http://www.w3.org/2000/svg" style="display:none">
  <!-- Modern icon set, Tabler-inspired style (MIT-friendly usage) -->
  <symbol id="i-home" viewBox="0 0 24 24" fill="none" stroke="currentColor" stroke-linecap="round" stroke-linejoin="round">
    <path d="M4 10.5 12 4l8 6.5"/>
    <path d="M6 9.8V20h12V9.8"/>
    <path d="M10 20v-4.2a2 2 0 0 1 2-2 2 2 0 0 1 2 2V20"/>
  </symbol>

  <symbol id="i-shopping-cart" viewBox="0 0 24 24" fill="none" stroke="currentColor" stroke-linecap="round" stroke-linejoin="round">
    <circle cx="9" cy="20" r="1.4"/>
    <circle cx="18" cy="20" r="1.4"/>
    <path d="M3 4h2.8l2 9.2a2 2 0 0 0 2 1.6h7.9a2 2 0 0 0 1.9-1.4L21 7H6.4"/>
  </symbol>

  <symbol id="i-utensils" viewBox="0 0 24 24" fill="none" stroke="currentColor" stroke-linecap="round" stroke-linejoin="round">
    <path d="M5 3v6a2 2 0 0 0 4 0V3"/>
    <path d="M7 3v18"/>
    <path d="M18 3a4 4 0 0 0-4 4v5a2 2 0 0 0 2 2h2V3z"/>
    <path d="M18 14v7"/>
  </symbol>

  <symbol id="i-check-square" viewBox="0 0 24 24" fill="none" stroke="currentColor" stroke-linecap="round" stroke-linejoin="round">
    <rect x="3.5" y="3.5" width="17" height="17" rx="3"/>
    <path d="m8 12 2.6 2.6L16.5 8.8"/>
  </symbol>

  <symbol id="i-calendar" viewBox="0 0 24 24" fill="none" stroke="currentColor" stroke-linecap="round" stroke-linejoin="round">
    <rect x="3" y="4.5" width="18" height="16.5" rx="2.8"/>
    <line x1="8" y1="2.8" x2="8" y2="6.5"/>
    <line x1="16" y1="2.8" x2="16" y2="6.5"/>
    <line x1="3" y1="9.5" x2="21" y2="9.5"/>
  </symbol>

  <symbol id="i-chef-hat" viewBox="0 0 24 24" fill="none" stroke="currentColor" stroke-linecap="round" stroke-linejoin="round">
    <path d="M6 13.8A3.8 3.8 0 0 1 7.4 6.5a4.8 4.8 0 0 1 9.2 0A3.8 3.8 0 0 1 18 13.8V20H6z"/>
    <line x1="6" y1="16.8" x2="18" y2="16.8"/>
  </symbol>

  <symbol id="i-settings" viewBox="0 0 24 24" fill="none" stroke="currentColor" stroke-linecap="round" stroke-linejoin="round">
    <circle cx="12" cy="12" r="3"/>
    <path d="M19.2 15a1.6 1.6 0 0 0 .3 1.7l.1.1a2 2 0 1 1-2.8 2.8l-.1-.1a1.6 1.6 0 0 0-1.7-.3 1.6 1.6 0 0 0-1 1.5v.2a2 2 0 1 1-4 0v-.2a1.6 1.6 0 0 0-1-1.5 1.6 1.6 0 0 0-1.7.3l-.1.1a2 2 0 1 1-2.8-2.8l.1-.1a1.6 1.6 0 0 0 .3-1.7 1.6 1.6 0 0 0-1.5-1H3a2 2 0 1 1 0-4h.2a1.6 1.6 0 0 0 1.5-1 1.6 1.6 0 0 0-.3-1.7l-.1-.1a2 2 0 1 1 2.8-2.8l.1.1a1.6 1.6 0 0 0 1.7.3 1.6 1.6 0 0 0 1-1.5V3a2 2 0 1 1 4 0v.2a1.6 1.6 0 0 0 1 1.5 1.6 1.6 0 0 0 1.7-.3l.1-.1a2 2 0 1 1 2.8 2.8l-.1.1a1.6 1.6 0 0 0-.3 1.7 1.6 1.6 0 0 0 1.5 1h.2a2 2 0 1 1 0 4h-.2a1.6 1.6 0 0 0-1.5 1z"/>
  </symbol>

  <symbol id="i-book-open" viewBox="0 0 24 24" fill="none" stroke="currentColor" stroke-linecap="round" stroke-linejoin="round">
    <path d="M2.5 5.5h5.8A3.7 3.7 0 0 1 12 9.2V20a3 3 0 0 0-3-3H2.5z"/>
    <path d="M21.5 5.5h-5.8A3.7 3.7 0 0 0 12 9.2V20a3 3 0 0 1 3-3h6.5z"/>
  </symbol>

  <symbol id="i-image" viewBox="0 0 24 24" fill="none" stroke="currentColor" stroke-linecap="round" stroke-linejoin="round">
    <rect x="3" y="3.5" width="18" height="17" rx="2.5"/>
    <circle cx="8.3" cy="8.4" r="1.4"/>
    <path d="m21 15-4.6-4.6L5 20.5"/>
  </symbol>

  <symbol id="i-camera" viewBox="0 0 24 24" fill="none" stroke="currentColor" stroke-linecap="round" stroke-linejoin="round">
    <path d="M3 7.5h3.8l1.8-2.8h6.8l1.8 2.8H21a2 2 0 0 1 2 2V18a2 2 0 0 1-2 2H3a2 2 0 0 1-2-2V9.5a2 2 0 0 1 2-2z"/>
    <circle cx="12" cy="13.2" r="3.8"/>
  </symbol>

  <symbol id="i-palette" viewBox="0 0 24 24" fill="none" stroke="currentColor" stroke-linecap="round" stroke-linejoin="round">
    <circle cx="13.3" cy="6.6" r="1"/>
    <circle cx="17.2" cy="10.2" r="1"/>
    <circle cx="8.8" cy="7.4" r="1"/>
    <circle cx="6.7" cy="12.1" r="1"/>
    <path d="M12 2.3A9.7 9.7 0 1 0 12 21.7c.9 0 1.6-.7 1.6-1.6 0-.4-.1-.8-.4-1.1a1.6 1.6 0 0 1-.4-1.1c0-.9.8-1.6 1.7-1.6h2c3 0 5.4-2.4 5.4-5.4 0-4.7-4.3-8.6-9.9-8.6z"/>
  </symbol>

  <symbol id="i-moon" viewBox="0 0 24 24" fill="none" stroke="currentColor" stroke-linecap="round" stroke-linejoin="round">
    <path d="M21 13a9 9 0 1 1-9.9-9 7.1 7.1 0 0 0 9.9 9z"/>
  </symbol>

  <symbol id="i-package" viewBox="0 0 24 24" fill="none" stroke="currentColor" stroke-linecap="round" stroke-linejoin="round">
    <path d="m3.2 7.8 8.8-5 8.8 5v8.5l-8.8 5-8.8-5z"/>
    <path d="m3.3 7.8 8.7 5 8.7-5"/>
    <line x1="12" y1="21.2" x2="12" y2="12.8"/>
  </symbol>

  <symbol id="i-tag" viewBox="0 0 24 24" fill="none" stroke="currentColor" stroke-linecap="round" stroke-linejoin="round">
    <path d="m20.2 13.1-7.1 7.1a2 2 0 0 1-2.8 0L2 12V2h10l8.2 8.2a2 2 0 0 1 0 2.9z"/>
    <circle cx="7" cy="7" r="0.9"/>
  </symbol>

  <symbol id="i-bell" viewBox="0 0 24 24" fill="none" stroke="currentColor" stroke-linecap="round" stroke-linejoin="round">
    <path d="M18 9a6 6 0 0 0-12 0c0 6.4-3 8.2-3 8.2h18S18 15.4 18 9z"/>
    <path d="M13.8 20.8a2.5 2.5 0 0 1-3.6 0"/>
  </symbol>

  <symbol id="i-search" viewBox="0 0 24 24" fill="none" stroke="currentColor" stroke-linecap="round" stroke-linejoin="round">
    <circle cx="11" cy="11" r="6.8"/>
    <line x1="20" y1="20" x2="16.3" y2="16.3"/>
  </symbol>

  <symbol id="i-edit" viewBox="0 0 24 24" fill="none" stroke="currentColor" stroke-linecap="round" stroke-linejoin="round">
    <path d="M16.8 3.2a2.9 2.9 0 1 1 4 4L8 20l-5 1 1-5z"/>
  </symbol>

  <symbol id="i-edit-square" viewBox="0 0 24 24" fill="none" stroke="currentColor" stroke-linecap="round" stroke-linejoin="round">
    <rect x="3" y="3" width="18" height="18" rx="3"/>
    <path d="M9.2 15.8 15.8 9.2"/>
    <path d="m14.7 8.1 1.2-1.2a1.7 1.7 0 0 1 2.4 2.4l-1.2 1.2"/>
    <path d="m8.7 16.3.5-2 1.5 1.5z"/>
  </symbol>

  <symbol id="i-trash" viewBox="0 0 24 24" fill="none" stroke="currentColor" stroke-linecap="round" stroke-linejoin="round">
    <path d="M4 6h16"/>
    <path d="M8 6V4h8v2"/>
    <path d="m6 6 1 14h10l1-14"/>
    <line x1="10" y1="10" x2="10" y2="17"/>
    <line x1="14" y1="10" x2="14" y2="17"/>
  </symbol>

  <symbol id="i-sun" viewBox="0 0 24 24" fill="none" stroke="currentColor" stroke-linecap="round" stroke-linejoin="round">
    <circle cx="12" cy="12" r="4.8"/>
    <line x1="12" y1="2.2" x2="12" y2="4.5"/>
    <line x1="12" y1="19.5" x2="12" y2="21.8"/>
    <line x1="2.2" y1="12" x2="4.5" y2="12"/>
    <line x1="19.5" y1="12" x2="21.8" y2="12"/>
    <line x1="5.1" y1="5.1" x2="6.7" y2="6.7"/>
    <line x1="17.3" y1="17.3" x2="18.9" y2="18.9"/>
    <line x1="5.1" y1="18.9" x2="6.7" y2="17.3"/>
    <line x1="17.3" y1="6.7" x2="18.9" y2="5.1"/>
  </symbol>

  <symbol id="i-chevron-down" viewBox="0 0 24 24" fill="none" stroke="currentColor" stroke-linecap="round" stroke-linejoin="round">
    <path d="m6 9 6 6 6-6"/>
  </symbol>

  <symbol id="i-leaf" viewBox="0 0 24 24" fill="none" stroke="currentColor" stroke-linecap="round" stroke-linejoin="round">
    <path d="M5 21c6.627 0 12-5.373 12-12V3s-9 0-12 9c-1.5 4.5 1.5 9 6 9z"/>
  </symbol>
  <symbol id="i-logout" viewBox="0 0 24 24" fill="none" stroke="currentColor" stroke-linecap="round" stroke-linejoin="round">
    <path d="M9 21H5a2 2 0 0 1-2-2V5a2 2 0 0 1 2-2h4"/>
    <polyline points="16 17 21 12 16 7"/>
    <line x1="21" y1="12" x2="9" y2="12"/>
  </symbol>
</svg>
