<svg version="1.0" xmlns="http://www.w3.org/2000/svg"
 viewBox="0 0 130 156"
 preserveAspectRatio="xMidYMid meet">
<g transform="translate(0,156) scale(0.1,-0.1)"
fill="#C4622D" stroke="none">
<path d="M547 1443 c-40 -37 -139 -130 -222 -208 -82 -78 -177 -167 -210 -198
-43 -40 -57 -59 -49 -67 8 -8 18 -5 36 10 l26 20 4 -237 c4 -263 11 -295 80
-411 91 -151 281 -271 438 -275 64 -2 79 14 23 26 -115 23 -145 32 -161 43
-15 11 -8 13 45 14 78 0 153 16 222 46 29 13 61 24 70 24 9 0 38 -20 64 -44
36 -35 57 -46 93 -52 58 -8 70 3 41 43 -31 44 -67 63 -120 63 -25 0 -48 3 -51
8 -2 4 14 23 37 42 43 36 61 39 163 25 52 -7 96 6 122 38 36 43 -108 60 -165
20 -60 -44 -63 -29 -14 71 35 71 54 98 79 111 38 22 68 66 77 117 10 53 0 62
-39 36 -41 -27 -72 -72 -81 -118 -4 -19 -16 -51 -26 -70 l-18 -35 -1 40 c-1
47 -28 112 -59 140 -19 16 -24 17 -31 5 -13 -21 -12 -77 1 -103 7 -12 25 -37
40 -55 16 -18 29 -43 29 -55 0 -32 -48 -104 -99 -150 -47 -42 -64 -43 -36 -1
26 40 35 81 28 131 -7 50 -18 51 -51 2 -19 -27 -23 -45 -21 -89 2 -30 -1 -65
-5 -78 -8 -25 -64 -57 -116 -67 l-35 -6 3 50 c3 40 -1 60 -22 97 -31 55 -31
54 -7 54 20 0 88 43 109 69 7 9 22 34 34 56 19 36 20 50 14 143 l-6 104 31 29
c28 26 29 30 12 35 -10 4 -34 24 -54 45 -31 33 -43 39 -76 39 -68 0 -113 -50
-127 -139 -8 -53 -55 -145 -101 -198 -37 -43 -50 -39 -80 26 -17 39 -17 40 9
93 19 40 25 62 20 86 -4 18 -10 32 -14 32 -15 0 -48 -47 -55 -78 l-7 -33 -25
26 c-26 25 -73 35 -73 14 0 -35 42 -76 93 -93 9 -3 17 -13 17 -22 0 -10 12
-37 26 -62 29 -49 25 -57 -29 -69 -15 -3 -30 -9 -33 -14 -8 -13 72 -49 111
-49 23 0 35 -5 35 -13 0 -15 -82 -114 -117 -140 -21 -16 -23 -16 -52 15 -17
18 -45 59 -61 90 -56 104 -60 130 -60 402 l0 249 98 91 c53 51 155 147 227
213 l130 121 25 -20 c14 -11 123 -110 242 -220 327 -300 300 -278 313 -258 3
5 -30 44 -75 86 l-80 77 0 103 c0 86 -3 104 -15 104 -12 0 -15 -16 -15 -85 0
-47 -3 -85 -7 -85 -3 0 -34 26 -67 58 -34 31 -102 93 -151 137 -48 44 -105 95
-124 112 -20 18 -40 33 -44 33 -4 0 -40 -30 -80 -67z m173 -553 c5 0 21 -16
36 -36 27 -35 27 -36 10 -65 -16 -27 -16 -38 -6 -99 23 -134 -26 -225 -142
-266 -22 -8 -49 -14 -60 -14 -30 0 -13 39 34 79 45 39 76 97 59 114 -6 6 -14
-2 -24 -25 -27 -65 -116 -118 -198 -118 -31 0 -70 15 -59 22 3 2 22 12 43 22
73 37 146 144 175 256 11 41 24 83 28 94 8 21 62 48 82 41 8 -3 18 -5 22 -5z
m-344 -178 c-15 -15 -16 -14 -16 7 0 12 6 32 12 44 13 22 13 21 16 -7 2 -17
-3 -35 -12 -44z m-56 -12 c7 -14 7 -20 0 -20 -13 0 -50 37 -50 50 0 16 38 -7
50 -30z m803 -88 c-16 -20 -34 -37 -41 -40 -20 -6 6 59 35 91 27 28 28 28 31
7 2 -13 -8 -37 -25 -58z m-158 -3 c9 -17 15 -42 13 -57 l-3 -27 -23 35 c-23
36 -30 80 -12 80 5 0 17 -14 25 -31z m-445 -179 c-12 -23 -30 -27 -30 -7 0 17
10 27 27 27 11 0 11 -5 3 -20z m350 -7 c0 -31 -21 -93 -30 -93 -14 0 -12 54 2
85 13 29 28 33 28 8z m-389 -61 c-26 -37 -48 -55 -61 -50 -14 4 48 78 66 78
12 0 11 -6 -5 -28z m112 10 c46 -50 57 -143 22 -172 -8 -7 -52 -14 -97 -17
-81 -5 -84 -4 -125 26 -24 17 -43 35 -43 40 0 5 15 14 33 21 81 30 97 40 117
80 17 32 26 40 49 40 15 0 35 -8 44 -18z m562 -1 c18 -7 17 -9 -12 -24 -36
-19 -70 -21 -93 -7 -12 7 -7 12 20 24 39 17 56 18 85 7z m-153 -182 l33 -31
-39 6 c-37 5 -76 30 -76 48 0 20 52 6 82 -23z"/>
<path d="M690 830 c0 -5 4 -10 9 -10 6 0 13 5 16 10 3 6 -1 10 -9 10 -9 0 -16
-4 -16 -10z"/>
</g>
</svg>
